<svg xmlns="http://www.w3.org/2000/svg" xmlns:xlink="http://www.w3.org/1999/xlink" version="1.1" width="1000" height="1000" viewBox="0 0 1000 1000" xml:space="preserve">
<desc>Webnetium LLC Digital Agency</desc>
<defs>
</defs>
<rect x="0" y="0" width="100%" height="100%" fill="rgba(255,255,255,0.01)"/>
<g transform="matrix(1.4985 0 0 1.4985 459.2589 483.3328)" id="614703">
<g style="" vector-effect="non-scaling-stroke">
		<g transform="matrix(0.1333 0 0 -0.1333 0.5997 1.2582)">
<path style="stroke: none; stroke-width: 1; stroke-dasharray: none; stroke-linecap: butt; stroke-dashoffset: 0; stroke-linejoin: miter; stroke-miterlimit: 4; is-custom-font: none; font-file-url: none; fill: rgb(0,0,0); fill-rule: nonzero; opacity: 1;" transform=" translate(-2030, -2265)" d="M 20 2265 l 0 -2255 l 2010 0 l 2010 0 l 0 2255 l 0 2255 l -2010 0 l -2010 0 l 0 -2255 z m 3890 5 l 0 -2160 l -1880 0 l -1880 0 l 0 2160 l 0 2160 l 1880 0 l 1880 0 l 0 -2160 z" stroke-linecap="round"/>
</g>
		<g transform="matrix(0.1333 0 0 -0.1333 -15.3363 -236.4138)">
<path style="stroke: none; stroke-width: 1; stroke-dasharray: none; stroke-linecap: butt; stroke-dashoffset: 0; stroke-linejoin: miter; stroke-miterlimit: 4; is-custom-font: none; font-file-url: none; fill: rgb(0,0,0); fill-rule: nonzero; opacity: 1;" transform=" translate(-1910, -4048.0692)" d="M 1900 4183 c 22 -9 30 -24 30 -61 c 0 -43 -19 -78 -69 -127 c -25 -23 -41 -48 -41 -62 c 0 -22 3 -23 90 -23 l 90 0 l 0 52 c 0 50 -1 52 -16 30 c -13 -19 -24 -22 -76 -22 l -60 0 l 68 53 c 64 49 69 56 72 94 c 3 46 -6 56 -68 67 c -19 3 -28 3 -20 -1 z" stroke-linecap="round"/>
</g>
		<g transform="matrix(0.1333 0 0 -0.1333 22.1638 -236.6653)">
<path style="stroke: none; stroke-width: 1; stroke-dasharray: none; stroke-linecap: butt; stroke-dashoffset: 0; stroke-linejoin: miter; stroke-miterlimit: 4; is-custom-font: none; font-file-url: none; fill: rgb(0,0,0); fill-rule: nonzero; opacity: 1;" transform=" translate(-2191.244, -4049.9553)" d="M 2140 4183 c 33 -12 40 -36 40 -139 c 0 -80 -3 -106 -16 -118 c -18 -18 -7 -20 30 -6 c 14 5 32 23 41 39 c 21 41 20 149 -1 180 c -16 23 -71 52 -96 50 c -8 0 -8 -2 2 -6 z" stroke-linecap="round"/>
</g>
		<g transform="matrix(0.1333 0 0 -0.1333 -23.7433 -248.2102)">
<path style="stroke: none; stroke-width: 1; stroke-dasharray: none; stroke-linecap: butt; stroke-dashoffset: 0; stroke-linejoin: miter; stroke-miterlimit: 4; is-custom-font: none; font-file-url: none; fill: rgb(0,0,0); fill-rule: nonzero; opacity: 1;" transform=" translate(-1846.9334, -4136.5654)" d="M 1825 4156 c -13 -20 -14 -29 -5 -46 c 13 -24 38 -23 54 3 c 8 13 8 20 -2 26 c -7 4 -10 15 -6 24 c 10 27 -23 21 -41 -7 z" stroke-linecap="round"/>
</g>
		<g transform="matrix(0.1333 0 0 -0.1333 6.0541 -236.0216)">
<path style="stroke: none; stroke-width: 1; stroke-dasharray: none; stroke-linecap: butt; stroke-dashoffset: 0; stroke-linejoin: miter; stroke-miterlimit: 4; is-custom-font: none; font-file-url: none; fill: rgb(0,0,0); fill-rule: nonzero; opacity: 1;" transform=" translate(-2070.4176, -4045.1285)" d="M 2067 4159 c -75 -58 -42 -249 43 -249 c 7 0 8 6 0 19 c -5 11 -10 63 -10 116 c 0 53 5 105 10 116 c 15 26 -9 26 -43 -2 z" stroke-linecap="round"/>
</g>
		<g transform="matrix(0.1333 0 0 -0.1333 -3.3916 -21.3679)">
<path style="stroke: none; stroke-width: 1; stroke-dasharray: none; stroke-linecap: butt; stroke-dashoffset: 0; stroke-linejoin: miter; stroke-miterlimit: 4; is-custom-font: none; font-file-url: none; fill: rgb(0,0,0); fill-rule: nonzero; opacity: 1;" transform=" translate(-2000, -2435)" d="M 250 3430 l 0 -40 l 98 0 l 98 0 l 320 -992 l 321 -993 l 291 -3 l 291 -2 l 24 77 c 282 921 382 1243 387 1243 c 3 0 13 -28 23 -62 c 9 -35 93 -331 186 -658 l 168 -595 l 298 0 l 298 0 l 243 930 c 134 512 250 958 260 993 l 16 62 l 89 0 l 89 0 l 0 40 l 0 40 l -290 0 l -290 0 l 0 -40 l 0 -40 l 151 0 c 117 0 150 -3 146 -12 c -2 -7 -89 -334 -193 -726 c -129 -491 -191 -708 -196 -695 c -5 10 -93 336 -196 726 l -188 707 l 88 0 l 88 0 l 0 40 l 0 40 l -560 0 l -560 0 l 0 -40 l 0 -40 l 80 0 c 74 0 80 -2 85 -22 c 3 -13 27 -116 54 -229 l 49 -207 l -157 -509 l -157 -509 l -38 145 c -22 81 -110 409 -197 731 c -88 322 -159 588 -159 592 c 0 5 59 8 130 8 l 130 0 l 0 40 l 0 40 l -660 0 l -660 0 l 0 -40 z" stroke-linecap="round"/>
</g>
		<g transform="matrix(0.1333 0 0 -0.1333 -87.1078 166.6638)">
<path style="stroke: none; stroke-width: 1; stroke-dasharray: none; stroke-linecap: butt; stroke-dashoffset: 0; stroke-linejoin: miter; stroke-miterlimit: 4; is-custom-font: none; font-file-url: none; fill: rgb(0,0,0); fill-rule: nonzero; opacity: 1;" transform=" translate(-1371.7361, -1024.9602)" d="M 1218 1031 l 3 -240 l -23 -4 c -13 -2 12 -5 55 -6 c 65 -1 77 1 77 16 c 0 15 1 15 18 0 c 21 -20 98 -23 135 -6 c 72 33 90 202 29 270 c -43 48 -144 48 -160 1 c -3 -11 0 -11 16 -1 c 10 7 27 9 36 6 c 13 -5 16 -24 16 -122 c 0 -147 -19 -186 -64 -136 c -15 16 -17 37 -16 128 c 1 59 1 159 1 221 l -1 112 l -62 0 l -63 0 l 3 -239 z" stroke-linecap="round"/>
</g>
		<g transform="matrix(0.1333 0 0 -0.1333 85.7961 143.3235)">
<path style="stroke: none; stroke-width: 1; stroke-dasharray: none; stroke-linecap: butt; stroke-dashoffset: 0; stroke-linejoin: miter; stroke-miterlimit: 4; is-custom-font: none; font-file-url: none; fill: rgb(0,0,0); fill-rule: nonzero; opacity: 1;" transform=" translate(-2668.4861, -1200.0588)" d="M 2620 1244 c -20 -23 -16 -75 5 -90 c 26 -20 69 -17 88 4 c 24 26 22 79 -2 92 c -29 15 -77 12 -91 -6 z" stroke-linecap="round"/>
</g>
		<g transform="matrix(0.1333 0 0 -0.1333 -195.5964 168.859)">
<path style="stroke: none; stroke-width: 1; stroke-dasharray: none; stroke-linecap: butt; stroke-dashoffset: 0; stroke-linejoin: miter; stroke-miterlimit: 4; is-custom-font: none; font-file-url: none; fill: rgb(0,0,0); fill-rule: nonzero; opacity: 1;" transform=" translate(-558.106, -1008.5)" d="M 245 1230 c 15 -6 40 -63 99 -230 l 79 -221 l 30 3 c 30 3 31 5 70 141 c 22 75 43 137 46 137 c 3 0 26 -63 50 -140 l 44 -140 l 31 0 l 31 0 l 59 225 c 57 215 60 224 85 228 c 14 2 -5 4 -44 4 c -38 0 -55 -2 -37 -4 c 17 -2 32 -9 32 -14 c 0 -13 -70 -293 -75 -297 c -3 -3 -78 229 -90 280 c -5 20 -3 27 12 31 c 10 3 -29 5 -87 4 c -58 0 -95 -2 -83 -4 c 16 -3 27 -19 42 -66 l 21 -61 l -26 -94 c -15 -51 -30 -89 -34 -85 c -7 8 -100 282 -100 295 c 0 4 10 9 23 11 c 12 2 -27 5 -88 5 c -68 0 -102 -2 -90 -8 z" stroke-linecap="round"/>
</g>
		<g transform="matrix(0.1333 0 0 -0.1333 54.3291 171.0518)">
<path style="stroke: none; stroke-width: 1; stroke-dasharray: none; stroke-linecap: butt; stroke-dashoffset: 0; stroke-linejoin: miter; stroke-miterlimit: 4; is-custom-font: none; font-file-url: none; fill: rgb(0,0,0); fill-rule: nonzero; opacity: 1;" transform=" translate(-2432.5, -992.0582)" d="M 2445 1204 c -5 -2 -29 -8 -52 -14 c -42 -10 -43 -12 -43 -51 c 0 -32 -4 -41 -22 -49 l -23 -9 l 23 0 c 22 -1 22 -3 22 -131 c 0 -158 7 -170 94 -170 c 30 0 62 3 71 6 c 17 7 45 54 45 76 c 0 7 -8 -3 -18 -22 c -22 -45 -58 -53 -72 -15 c -5 14 -10 78 -10 141 l 0 114 l 48 2 l 47 1 l -45 6 l -45 6 l -5 56 c -3 31 -9 55 -15 53 z" stroke-linecap="round"/>
</g>
		<g transform="matrix(0.1333 0 0 -0.1333 -135.8719 178.0775)">
<path style="stroke: none; stroke-width: 1; stroke-dasharray: none; stroke-linecap: butt; stroke-dashoffset: 0; stroke-linejoin: miter; stroke-miterlimit: 4; is-custom-font: none; font-file-url: none; fill: rgb(0,0,0); fill-rule: nonzero; opacity: 1;" transform=" translate(-1006, -939.3784)" d="M 933 1080 c -57 -25 -83 -69 -83 -138 c 0 -66 23 -118 64 -143 c 38 -23 144 -26 184 -5 c 29 15 60 61 49 73 c -4 3 -7 0 -7 -9 c 0 -20 -39 -55 -70 -63 c -43 -10 -78 9 -89 52 c -6 21 -11 53 -11 71 l 0 32 l 96 0 l 96 0 l -7 38 c -9 51 -31 81 -70 98 c -47 19 -102 17 -152 -6 z m 95 -2 c 7 -7 12 -36 12 -65 l 0 -53 l -35 0 c -34 0 -35 1 -35 39 c 0 74 27 110 58 79 z" stroke-linecap="round"/>
</g>
		<g transform="matrix(0.1333 0 0 -0.1333 -34.4082 178.1351)">
<path style="stroke: none; stroke-width: 1; stroke-dasharray: none; stroke-linecap: butt; stroke-dashoffset: 0; stroke-linejoin: miter; stroke-miterlimit: 4; is-custom-font: none; font-file-url: none; fill: rgb(0,0,0); fill-rule: nonzero; opacity: 1;" transform=" translate(-1766.984, -938.947)" d="M 1775 1089 c -11 -7 -24 -18 -28 -26 c -12 -20 -27 -16 -27 7 c 0 18 -6 20 -77 19 c -43 -1 -68 -4 -55 -6 c 22 -4 22 -7 22 -148 c 0 -141 0 -144 -22 -148 c -13 -2 19 -5 71 -6 c 81 -1 92 1 77 12 c -17 12 -18 25 -14 120 c 5 112 21 157 57 157 c 26 0 31 -26 31 -162 c 0 -103 -2 -117 -17 -121 c -10 -3 25 -5 77 -5 c 52 0 87 2 78 5 c -16 4 -18 18 -18 101 c -1 107 -11 167 -33 190 c -19 19 -97 26 -122 11 z" stroke-linecap="round"/>
</g>
		<g transform="matrix(0.1333 0 0 -0.1333 14.7948 178.0775)">
<path style="stroke: none; stroke-width: 1; stroke-dasharray: none; stroke-linecap: butt; stroke-dashoffset: 0; stroke-linejoin: miter; stroke-miterlimit: 4; is-custom-font: none; font-file-url: none; fill: rgb(0,0,0); fill-rule: nonzero; opacity: 1;" transform=" translate(-2136, -939.3784)" d="M 2063 1080 c -57 -25 -83 -69 -83 -138 c 0 -66 23 -118 64 -143 c 38 -23 144 -26 184 -5 c 29 15 60 61 49 73 c -4 3 -7 0 -7 -9 c 0 -20 -39 -55 -70 -63 c -43 -10 -78 9 -89 52 c -6 21 -11 53 -11 71 l 0 32 l 96 0 l 96 0 l -7 38 c -9 51 -31 81 -70 98 c -47 19 -102 17 -152 -6 z m 95 -2 c 7 -7 12 -36 12 -65 l 0 -53 l -35 0 c -34 0 -35 1 -35 39 c 0 74 27 110 58 79 z" stroke-linecap="round"/>
</g>
		<g transform="matrix(0.1333 0 0 -0.1333 190.0041 177.9195)">
<path style="stroke: none; stroke-width: 1; stroke-dasharray: none; stroke-linecap: butt; stroke-dashoffset: 0; stroke-linejoin: miter; stroke-miterlimit: 4; is-custom-font: none; font-file-url: none; fill: rgb(0,0,0); fill-rule: nonzero; opacity: 1;" transform=" translate(-3450.1002, -940.5631)" d="M 3349 1071 l -29 -29 l 0 24 c 0 24 -1 24 -82 23 c -46 -1 -73 -4 -60 -6 c 22 -4 22 -7 22 -148 c 0 -141 0 -144 -22 -148 c -13 -2 20 -5 72 -5 c 52 0 89 2 83 5 c -20 8 -18 215 3 254 c 9 19 21 29 32 27 c 15 -3 17 -21 20 -137 c 2 -101 -1 -136 -10 -143 c -7 -4 25 -8 72 -8 c 50 0 80 4 72 9 c -22 13 -13 245 10 267 c 9 9 24 14 32 11 c 14 -5 16 -28 16 -141 c 0 -98 -3 -136 -12 -139 c -7 -3 30 -5 82 -5 c 52 0 85 3 73 5 c -20 4 -22 10 -25 134 c -3 129 -3 131 -31 155 c -39 33 -88 32 -128 -4 l -31 -28 l -28 28 c -40 39 -91 39 -131 -1 z" stroke-linecap="round"/>
</g>
		<g transform="matrix(0.1333 0 0 -0.1333 85.6027 178.4788)">
<path style="stroke: none; stroke-width: 1; stroke-dasharray: none; stroke-linecap: butt; stroke-dashoffset: 0; stroke-linejoin: miter; stroke-miterlimit: 4; is-custom-font: none; font-file-url: none; fill: rgb(0,0,0); fill-rule: nonzero; opacity: 1;" transform=" translate(-2667.0415, -936.3699)" d="M 2588 1083 c 22 -4 22 -7 22 -148 c 0 -141 0 -144 -22 -148 c -13 -2 22 -4 77 -4 c 55 -1 92 1 83 4 c -16 4 -18 20 -18 154 l 0 149 l -82 -1 c -46 -1 -73 -4 -60 -6 z" stroke-linecap="round"/>
</g>
		<g transform="matrix(0.1333 0 0 -0.1333 124.0437 178.6615)">
<path style="stroke: none; stroke-width: 1; stroke-dasharray: none; stroke-linecap: butt; stroke-dashoffset: 0; stroke-linejoin: miter; stroke-miterlimit: 4; is-custom-font: none; font-file-url: none; fill: rgb(0,0,0); fill-rule: nonzero; opacity: 1;" transform=" translate(-2955.3726, -935)" d="M 2778 1083 c 21 -4 22 -8 22 -119 c 0 -160 14 -184 106 -184 c 31 0 50 6 64 20 c 11 11 22 20 25 20 c 3 0 5 -9 5 -20 c 0 -18 6 -20 78 -19 c 42 1 67 4 55 6 c -23 4 -23 7 -23 154 l 0 149 l -77 -1 c -43 -1 -70 -3 -60 -6 c 15 -4 17 -19 17 -127 c 0 -109 -2 -125 -20 -141 c -10 -9 -26 -15 -35 -12 c -12 5 -15 30 -15 147 l 0 140 l -82 -1 c -46 -1 -73 -4 -60 -6 z" stroke-linecap="round"/>
</g>
		<g transform="matrix(0.1333 0 0 -0.1333 -13.1366 231.5203)">
<path style="stroke: none; stroke-width: 1; stroke-dasharray: none; stroke-linecap: butt; stroke-dashoffset: 0; stroke-linejoin: miter; stroke-miterlimit: 4; is-custom-font: none; font-file-url: none; fill: rgb(0,0,0); fill-rule: nonzero; opacity: 1;" transform=" translate(-1926.5, -538.5625)" d="M 1917 671 c 54 -24 35 -109 -38 -183 c -27 -27 -49 -58 -49 -68 c 0 -18 7 -20 90 -20 l 90 0 l 0 28 c 0 15 3 38 7 52 l 6 25 l -19 -23 c -17 -20 -27 -23 -78 -20 l -58 3 l 48 35 c 68 49 94 79 94 110 c 0 35 -25 57 -75 64 c -31 5 -35 4 -18 -3 z" stroke-linecap="round"/>
</g>
		<g transform="matrix(0.1333 0 0 -0.1333 18.8812 231.5163)">
<path style="stroke: none; stroke-width: 1; stroke-dasharray: none; stroke-linecap: butt; stroke-dashoffset: 0; stroke-linejoin: miter; stroke-miterlimit: 4; is-custom-font: none; font-file-url: none; fill: rgb(0,0,0); fill-rule: nonzero; opacity: 1;" transform=" translate(-2166.6265, -538.5928)" d="M 2132 668 c 17 -13 23 -40 20 -85 c -2 -16 -11 -25 -29 -30 l -28 -7 l 30 -6 c 24 -4 31 -12 38 -42 c 7 -28 5 -45 -6 -68 c -17 -34 -8 -39 36 -19 c 61 28 60 100 -1 126 c -37 15 -37 16 -12 25 c 30 11 40 25 40 59 c 0 33 -14 44 -65 53 c -34 6 -38 6 -23 -6 z" stroke-linecap="round"/>
</g>
		<g transform="matrix(0.1333 0 0 -0.1333 -21.4468 219.888)">
<path style="stroke: none; stroke-width: 1; stroke-dasharray: none; stroke-linecap: butt; stroke-dashoffset: 0; stroke-linejoin: miter; stroke-miterlimit: 4; is-custom-font: none; font-file-url: none; fill: rgb(0,0,0); fill-rule: nonzero; opacity: 1;" transform=" translate(-1864.1574, -625.8285)" d="M 1846 651 c -21 -23 -18 -49 6 -65 c 26 -16 57 16 39 38 c -7 9 -11 23 -7 31 c 8 22 -17 19 -38 -4 z" stroke-linecap="round"/>
</g>
		<g transform="matrix(0.1333 0 0 -0.1333 7.1776 219.8817)">
<path style="stroke: none; stroke-width: 1; stroke-dasharray: none; stroke-linecap: butt; stroke-dashoffset: 0; stroke-linejoin: miter; stroke-miterlimit: 4; is-custom-font: none; font-file-url: none; fill: rgb(0,0,0); fill-rule: nonzero; opacity: 1;" transform=" translate(-2078.8391, -625.8766)" d="M 2066 654 c -20 -20 -21 -60 -1 -68 c 30 -11 44 4 42 45 c -2 42 -16 49 -41 23 z" stroke-linecap="round"/>
</g>
		<g transform="matrix(0.1333 0 0 -0.1333 6.6092 244.0312)">
<path style="stroke: none; stroke-width: 1; stroke-dasharray: none; stroke-linecap: butt; stroke-dashoffset: 0; stroke-linejoin: miter; stroke-miterlimit: 4; is-custom-font: none; font-file-url: none; fill: rgb(0,0,0); fill-rule: nonzero; opacity: 1;" transform=" translate(-2074.5781, -444.7547)" d="M 2046 474 c -3 -9 -6 -20 -6 -25 c 0 -16 39 -49 58 -49 c 14 0 15 2 2 10 c -12 8 -13 13 -3 29 c 7 11 10 27 7 36 c -8 20 -50 19 -58 -1 z" stroke-linecap="round"/>
</g>
</g>
</g>
</svg>